<?xml version="1.0" encoding="utf-8"?>
<!-- Generator: Adobe Illustrator 16.0.0, SVG Export Plug-In . SVG Version: 6.00 Build 0)  -->
<!DOCTYPE svg PUBLIC "-//W3C//DTD SVG 1.0//EN" "http://www.w3.org/TR/2001/REC-SVG-20010904/DTD/svg10.dtd">
<svg version="1.0" id="Layer_1" xmlns="http://www.w3.org/2000/svg" xmlns:xlink="http://www.w3.org/1999/xlink" x="0px" y="0px"
	 width="1024px" height="768px" viewBox="0 0 1024 768" enable-background="new 0 0 1024 768" xml:space="preserve">
<g id="Favorite">
	<g>
		<path fill="#9E0D0D" d="M380.405,266.329c0.904,0,1.868,0.049,2.898,0.149c6.27,0.612,13.52,6.353,14.404,17.353v3.661
			c-0.822,10.528-8.771,23.515-32,39.808c-23.229-16.293-31.177-29.279-31.999-39.808v-3.661c0.883-11,8.133-16.74,14.402-17.353
			c1.03-0.101,1.994-0.149,2.898-0.149c7.244,0,10.72,3.131,14.698,7.872C369.686,269.459,373.16,266.329,380.405,266.329
			 M380.405,273.329c-4.162,0-5.898,1.275-9.335,5.372l-5.361,6.39l-5.363-6.39c-3.438-4.097-5.174-5.372-9.336-5.372
			c-0.682,0-1.428,0.039-2.219,0.116c-2.894,0.283-7.396,3.364-8.082,10.687v3.063c0.852,9.196,9.255,19.77,24.999,31.473
			c15.745-11.704,24.148-22.277,25-31.473v-3.063c-0.688-7.323-5.19-10.405-8.085-10.688
			C381.833,273.368,381.086,273.329,380.405,273.329L380.405,273.329z"/>
	</g>
</g>
</svg>
